# MagicaVoxel @ Ephtracy

# material
mtllib Cell.mtl
usemtl palette

# normals
vn -1 0 0
vn 1 0 0
vn 0 0 1
vn 0 0 -1
vn 0 -1 0
vn 0 1 0

# texcoords
vt 0.0175781 0.5
vt 0.857422 0.5
vt 0.861328 0.5
vt 0.962891 0.5
vt 0.974609 0.5
vt 0.978516 0.5
vt 0.982422 0.5
vt 0.990234 0.5

# verts
v -10.5 0 9.5
v -10.5 0 -11.5
v -10.5 6 9.5
v -10.5 6 -11.5
v -10.5 7 9.5
v -10.5 7 -11.5
v -10.5 8 9.5
v -10.5 8 -11.5
v -10.5 9 9.5
v -10.5 9 -11.5
v -10.5 16 9.5
v -10.5 16 -11.5
v -10.5 17 9.5
v -10.5 17 -11.5
v -10.5 18 9.5
v -10.5 18 -11.5
v -10.5 19 9.5
v -10.5 19 8.5
v -10.5 19 -11.5
v -10.5 20 8.5
v -10.5 20 -11.5
v -10.5 21 9.5
v -10.5 21 8.5
v -9.5 20 8.5
v -9.5 20 -10.5
v -9.5 21 8.5
v -9.5 21 -10.5
v -8.5 21 10.5
v -8.5 21 9.5
v -8.5 21 -9.5
v -8.5 22 9.5
v -8.5 22 -9.5
v -8.5 28 10.5
v -8.5 28 9.5
v -7.5 22 11.5
v -7.5 22 10.5
v -7.5 22 9.5
v -7.5 22 -8.5
v -7.5 23 9.5
v -7.5 23 -8.5
v -7.5 27 11.5
v -7.5 27 10.5
v -6.5 23 9.5
v -6.5 23 -7.5
v -6.5 24 9.5
v -6.5 24 -7.5
v -5.5 24 9.5
v -5.5 24 -6.5
v -5.5 25 9.5
v -5.5 25 -6.5
v -4.5 25 9.5
v -4.5 25 -5.5
v -4.5 26 9.5
v -4.5 26 -5.5
v -3.5 22 11.5
v -3.5 22 10.5
v -3.5 26 9.5
v -3.5 26 -4.5
v -3.5 27 11.5
v -3.5 27 10.5
v -3.5 27 9.5
v -3.5 27 -4.5
v 0.5 22 11.5
v 0.5 22 10.5
v 0.5 27 11.5
v 0.5 27 10.5
v 4.5 22 11.5
v 4.5 22 10.5
v 4.5 27 11.5
v 4.5 27 10.5
v 8.5 0 9.5
v 8.5 0 7.5
v 8.5 19 8.5
v 8.5 19 7.5
v 8.5 20 9.5
v 8.5 20 8.5
v 9.5 0 7.5
v 9.5 0 -10.5
v 9.5 6 7.5
v 9.5 6 -10.5
v 9.5 7 7.5
v 9.5 7 -10.5
v 9.5 8 7.5
v 9.5 8 -10.5
v 9.5 9 7.5
v 9.5 9 -10.5
v 9.5 16 7.5
v 9.5 16 -10.5
v 9.5 17 7.5
v 9.5 17 -10.5
v 9.5 18 7.5
v 9.5 18 -10.5
v 9.5 19 7.5
v 9.5 19 -10.5
v -9.5 0 7.5
v -9.5 0 -10.5
v -9.5 6 7.5
v -9.5 6 -10.5
v -9.5 7 7.5
v -9.5 7 -10.5
v -9.5 8 7.5
v -9.5 8 -10.5
v -9.5 9 7.5
v -9.5 9 -10.5
v -9.5 16 7.5
v -9.5 16 -10.5
v -9.5 17 7.5
v -9.5 17 -10.5
v -9.5 18 7.5
v -9.5 18 -10.5
v -9.5 19 7.5
v -9.5 19 -10.5
v -8.5 0 9.5
v -8.5 0 7.5
v -8.5 19 8.5
v -8.5 19 7.5
v -8.5 20 9.5
v -8.5 20 8.5
v -6.5 23 11.5
v -6.5 23 10.5
v -6.5 26 11.5
v -6.5 26 10.5
v -4.5 22 11.5
v -4.5 22 10.5
v -4.5 23 11.5
v -4.5 23 10.5
v -4.5 26 11.5
v -4.5 26 10.5
v -4.5 27 11.5
v -4.5 27 10.5
v -2.5 23 11.5
v -2.5 23 10.5
v -2.5 24 11.5
v -2.5 24 10.5
v -2.5 25 11.5
v -2.5 25 10.5
v -2.5 26 11.5
v -2.5 26 10.5
v -1.5 24 11.5
v -1.5 24 10.5
v -1.5 25 11.5
v -1.5 25 10.5
v -0.5 22 11.5
v -0.5 22 10.5
v -0.5 23 11.5
v -0.5 23 10.5
v -0.5 26 11.5
v -0.5 26 10.5
v -0.5 27 11.5
v -0.5 27 10.5
v 1.5 23 11.5
v 1.5 23 10.5
v 1.5 27 11.5
v 1.5 27 10.5
v 3.5 22 11.5
v 3.5 22 10.5
v 3.5 23 11.5
v 3.5 23 10.5
v 3.5 26 9.5
v 3.5 26 -4.5
v 3.5 27 9.5
v 3.5 27 -4.5
v 4.5 25 9.5
v 4.5 25 -5.5
v 4.5 26 9.5
v 4.5 26 -5.5
v 5.5 23 11.5
v 5.5 23 10.5
v 5.5 24 9.5
v 5.5 24 -6.5
v 5.5 25 9.5
v 5.5 25 -6.5
v 5.5 27 11.5
v 5.5 27 10.5
v 6.5 23 9.5
v 6.5 23 -7.5
v 6.5 24 9.5
v 6.5 24 -7.5
v 7.5 22 11.5
v 7.5 22 10.5
v 7.5 22 9.5
v 7.5 22 -8.5
v 7.5 23 11.5
v 7.5 23 10.5
v 7.5 23 9.5
v 7.5 23 -8.5
v 8.5 21 10.5
v 8.5 21 9.5
v 8.5 21 -9.5
v 8.5 22 9.5
v 8.5 22 -9.5
v 8.5 28 10.5
v 8.5 28 9.5
v 9.5 20 8.5
v 9.5 20 -10.5
v 9.5 21 8.5
v 9.5 21 -10.5
v 10.5 0 9.5
v 10.5 0 -11.5
v 10.5 6 9.5
v 10.5 6 -11.5
v 10.5 7 9.5
v 10.5 7 -11.5
v 10.5 8 9.5
v 10.5 8 -11.5
v 10.5 9 9.5
v 10.5 9 -11.5
v 10.5 16 9.5
v 10.5 16 -11.5
v 10.5 17 9.5
v 10.5 17 -11.5
v 10.5 18 9.5
v 10.5 18 -11.5
v 10.5 19 9.5
v 10.5 19 8.5
v 10.5 19 -11.5
v 10.5 20 8.5
v 10.5 20 -11.5
v 10.5 21 9.5
v 10.5 21 8.5
v -7.5 22 11.5
v -7.5 27 11.5
v -6.5 23 11.5
v -6.5 26 11.5
v -4.5 22 11.5
v -4.5 23 11.5
v -4.5 26 11.5
v -4.5 27 11.5
v -3.5 22 11.5
v -3.5 27 11.5
v -2.5 23 11.5
v -2.5 24 11.5
v -2.5 25 11.5
v -2.5 26 11.5
v -1.5 24 11.5
v -1.5 25 11.5
v -0.5 22 11.5
v -0.5 23 11.5
v -0.5 26 11.5
v -0.5 27 11.5
v 0.5 22 11.5
v 0.5 27 11.5
v 1.5 23 11.5
v 1.5 27 11.5
v 3.5 22 11.5
v 3.5 23 11.5
v 4.5 22 11.5
v 4.5 27 11.5
v 5.5 23 11.5
v 5.5 27 11.5
v 7.5 22 11.5
v 7.5 23 11.5
v -8.5 21 10.5
v -8.5 28 10.5
v -7.5 22 10.5
v -7.5 27 10.5
v -6.5 23 10.5
v -6.5 26 10.5
v -4.5 22 10.5
v -4.5 23 10.5
v -4.5 26 10.5
v -4.5 27 10.5
v -3.5 22 10.5
v -3.5 27 10.5
v -2.5 23 10.5
v -2.5 24 10.5
v -2.5 25 10.5
v -2.5 26 10.5
v -1.5 24 10.5
v -1.5 25 10.5
v -0.5 22 10.5
v -0.5 23 10.5
v -0.5 26 10.5
v -0.5 27 10.5
v 0.5 22 10.5
v 0.5 27 10.5
v 1.5 23 10.5
v 1.5 27 10.5
v 3.5 22 10.5
v 3.5 23 10.5
v 4.5 22 10.5
v 4.5 27 10.5
v 5.5 23 10.5
v 5.5 27 10.5
v 7.5 22 10.5
v 7.5 23 10.5
v 8.5 21 10.5
v 8.5 28 10.5
v -10.5 0 9.5
v -10.5 6 9.5
v -10.5 7 9.5
v -10.5 8 9.5
v -10.5 9 9.5
v -10.5 16 9.5
v -10.5 17 9.5
v -10.5 18 9.5
v -10.5 19 9.5
v -10.5 21 9.5
v -9.5 0 9.5
v -9.5 6 9.5
v -9.5 7 9.5
v -9.5 8 9.5
v -9.5 9 9.5
v -9.5 16 9.5
v -9.5 17 9.5
v -9.5 18 9.5
v -9.5 19 9.5
v -9.5 20 9.5
v -8.5 0 9.5
v -8.5 20 9.5
v -8.5 21 9.5
v 8.5 0 9.5
v 8.5 20 9.5
v 8.5 21 9.5
v 9.5 0 9.5
v 9.5 6 9.5
v 9.5 7 9.5
v 9.5 8 9.5
v 9.5 9 9.5
v 9.5 16 9.5
v 9.5 17 9.5
v 9.5 18 9.5
v 9.5 19 9.5
v 9.5 20 9.5
v 10.5 0 9.5
v 10.5 6 9.5
v 10.5 7 9.5
v 10.5 8 9.5
v 10.5 9 9.5
v 10.5 16 9.5
v 10.5 17 9.5
v 10.5 18 9.5
v 10.5 19 9.5
v 10.5 21 9.5
v -8.5 19 8.5
v -8.5 20 8.5
v 8.5 19 8.5
v 8.5 20 8.5
v -9.5 0 -10.5
v -9.5 6 -10.5
v -9.5 7 -10.5
v -9.5 8 -10.5
v -9.5 9 -10.5
v -9.5 16 -10.5
v -9.5 17 -10.5
v -9.5 18 -10.5
v -9.5 19 -10.5
v 9.5 0 -10.5
v 9.5 6 -10.5
v 9.5 7 -10.5
v 9.5 8 -10.5
v 9.5 9 -10.5
v 9.5 16 -10.5
v 9.5 17 -10.5
v 9.5 18 -10.5
v 9.5 19 -10.5
v -8.5 22 9.5
v -8.5 28 9.5
v -7.5 22 9.5
v -7.5 23 9.5
v -6.5 23 9.5
v -6.5 24 9.5
v -5.5 24 9.5
v -5.5 25 9.5
v -4.5 25 9.5
v -4.5 26 9.5
v -3.5 26 9.5
v -3.5 27 9.5
v 3.5 26 9.5
v 3.5 27 9.5
v 4.5 25 9.5
v 4.5 26 9.5
v 5.5 24 9.5
v 5.5 25 9.5
v 6.5 23 9.5
v 6.5 24 9.5
v 7.5 22 9.5
v 7.5 23 9.5
v 8.5 22 9.5
v 8.5 28 9.5
v -10.5 20 8.5
v -10.5 21 8.5
v -9.5 20 8.5
v -9.5 21 8.5
v 9.5 20 8.5
v 9.5 21 8.5
v 10.5 20 8.5
v 10.5 21 8.5
v -9.5 0 7.5
v -9.5 6 7.5
v -9.5 7 7.5
v -9.5 8 7.5
v -9.5 9 7.5
v -9.5 16 7.5
v -9.5 17 7.5
v -9.5 18 7.5
v -9.5 19 7.5
v -8.5 0 7.5
v -8.5 19 7.5
v 8.5 0 7.5
v 8.5 19 7.5
v 9.5 0 7.5
v 9.5 6 7.5
v 9.5 7 7.5
v 9.5 8 7.5
v 9.5 9 7.5
v 9.5 16 7.5
v 9.5 17 7.5
v 9.5 18 7.5
v 9.5 19 7.5
v -3.5 26 -4.5
v -3.5 27 -4.5
v 3.5 26 -4.5
v 3.5 27 -4.5
v -4.5 25 -5.5
v -4.5 26 -5.5
v 4.5 25 -5.5
v 4.5 26 -5.5
v -5.5 24 -6.5
v -5.5 25 -6.5
v 5.5 24 -6.5
v 5.5 25 -6.5
v -6.5 23 -7.5
v -6.5 24 -7.5
v 6.5 23 -7.5
v 6.5 24 -7.5
v -7.5 22 -8.5
v -7.5 23 -8.5
v 7.5 22 -8.5
v 7.5 23 -8.5
v -8.5 21 -9.5
v -8.5 22 -9.5
v 8.5 21 -9.5
v 8.5 22 -9.5
v -9.5 20 -10.5
v -9.5 21 -10.5
v 9.5 20 -10.5
v 9.5 21 -10.5
v -10.5 0 -11.5
v -10.5 6 -11.5
v -10.5 7 -11.5
v -10.5 8 -11.5
v -10.5 9 -11.5
v -10.5 16 -11.5
v -10.5 17 -11.5
v -10.5 18 -11.5
v -10.5 19 -11.5
v -10.5 20 -11.5
v 10.5 0 -11.5
v 10.5 6 -11.5
v 10.5 7 -11.5
v 10.5 8 -11.5
v 10.5 9 -11.5
v 10.5 16 -11.5
v 10.5 17 -11.5
v 10.5 18 -11.5
v 10.5 19 -11.5
v 10.5 20 -11.5
v -10.5 0 9.5
v -9.5 0 9.5
v -8.5 0 9.5
v 8.5 0 9.5
v 9.5 0 9.5
v 10.5 0 9.5
v -9.5 0 7.5
v -8.5 0 7.5
v 8.5 0 7.5
v 9.5 0 7.5
v -9.5 0 -10.5
v 9.5 0 -10.5
v -10.5 0 -11.5
v 10.5 0 -11.5
v -8.5 19 8.5
v 8.5 19 8.5
v -9.5 19 7.5
v -8.5 19 7.5
v 8.5 19 7.5
v 9.5 19 7.5
v -9.5 19 -10.5
v 9.5 19 -10.5
v -8.5 20 9.5
v 8.5 20 9.5
v -8.5 20 8.5
v 8.5 20 8.5
v -8.5 21 10.5
v 8.5 21 10.5
v -8.5 21 9.5
v 8.5 21 9.5
v -7.5 22 11.5
v -4.5 22 11.5
v -3.5 22 11.5
v -0.5 22 11.5
v 0.5 22 11.5
v 3.5 22 11.5
v 4.5 22 11.5
v 7.5 22 11.5
v -7.5 22 10.5
v -4.5 22 10.5
v -3.5 22 10.5
v -0.5 22 10.5
v 0.5 22 10.5
v 3.5 22 10.5
v 4.5 22 10.5
v 7.5 22 10.5
v -2.5 24 11.5
v -1.5 24 11.5
v -2.5 24 10.5
v -1.5 24 10.5
v -6.5 26 11.5
v -4.5 26 11.5
v -2.5 26 11.5
v -0.5 26 11.5
v -6.5 26 10.5
v -4.5 26 10.5
v -2.5 26 10.5
v -0.5 26 10.5
v -10.5 20 8.5
v -9.5 20 8.5
v 9.5 20 8.5
v 10.5 20 8.5
v -9.5 20 -10.5
v 9.5 20 -10.5
v -10.5 20 -11.5
v 10.5 20 -11.5
v -10.5 21 9.5
v -8.5 21 9.5
v 8.5 21 9.5
v 10.5 21 9.5
v -10.5 21 8.5
v -9.5 21 8.5
v 9.5 21 8.5
v 10.5 21 8.5
v -8.5 21 -9.5
v 8.5 21 -9.5
v -9.5 21 -10.5
v 9.5 21 -10.5
v -8.5 22 9.5
v -7.5 22 9.5
v 7.5 22 9.5
v 8.5 22 9.5
v -7.5 22 -8.5
v 7.5 22 -8.5
v -8.5 22 -9.5
v 8.5 22 -9.5
v -6.5 23 11.5
v -4.5 23 11.5
v -2.5 23 11.5
v -0.5 23 11.5
v 1.5 23 11.5
v 3.5 23 11.5
v 5.5 23 11.5
v 7.5 23 11.5
v -6.5 23 10.5
v -4.5 23 10.5
v -2.5 23 10.5
v -0.5 23 10.5
v 1.5 23 10.5
v 3.5 23 10.5
v 5.5 23 10.5
v 7.5 23 10.5
v -7.5 23 9.5
v -6.5 23 9.5
v 6.5 23 9.5
v 7.5 23 9.5
v -6.5 23 -7.5
v 6.5 23 -7.5
v -7.5 23 -8.5
v 7.5 23 -8.5
v -6.5 24 9.5
v -5.5 24 9.5
v 5.5 24 9.5
v 6.5 24 9.5
v -5.5 24 -6.5
v 5.5 24 -6.5
v -6.5 24 -7.5
v 6.5 24 -7.5
v -2.5 25 11.5
v -1.5 25 11.5
v -2.5 25 10.5
v -1.5 25 10.5
v -5.5 25 9.5
v -4.5 25 9.5
v 4.5 25 9.5
v 5.5 25 9.5
v -4.5 25 -5.5
v 4.5 25 -5.5
v -5.5 25 -6.5
v 5.5 25 -6.5
v -4.5 26 9.5
v -3.5 26 9.5
v 3.5 26 9.5
v 4.5 26 9.5
v -3.5 26 -4.5
v 3.5 26 -4.5
v -4.5 26 -5.5
v 4.5 26 -5.5
v -7.5 27 11.5
v -4.5 27 11.5
v -3.5 27 11.5
v -0.5 27 11.5
v 0.5 27 11.5
v 1.5 27 11.5
v 4.5 27 11.5
v 5.5 27 11.5
v -7.5 27 10.5
v -4.5 27 10.5
v -3.5 27 10.5
v -0.5 27 10.5
v 0.5 27 10.5
v 1.5 27 10.5
v 4.5 27 10.5
v 5.5 27 10.5
v -3.5 27 9.5
v 3.5 27 9.5
v -3.5 27 -4.5
v 3.5 27 -4.5
v -8.5 28 10.5
v 8.5 28 10.5
v -8.5 28 9.5
v 8.5 28 9.5

# faces
f 3/8/1 2/8/1 1/8/1
f 4/8/1 2/8/1 3/8/1
f 5/1/1 4/1/1 3/1/1
f 6/1/1 4/1/1 5/1/1
f 7/2/1 6/2/1 5/2/1
f 8/2/1 6/2/1 7/2/1
f 9/1/1 8/1/1 7/1/1
f 10/1/1 8/1/1 9/1/1
f 11/7/1 10/7/1 9/7/1
f 12/7/1 10/7/1 11/7/1
f 13/1/1 12/1/1 11/1/1
f 14/1/1 12/1/1 13/1/1
f 15/2/1 14/2/1 13/2/1
f 16/2/1 14/2/1 15/2/1
f 17/1/1 16/1/1 15/1/1
f 18/1/1 16/1/1 17/1/1
f 19/1/1 16/1/1 18/1/1
f 20/7/1 18/7/1 17/7/1
f 20/5/1 19/5/1 18/5/1
f 21/5/1 19/5/1 20/5/1
f 22/7/1 20/7/1 17/7/1
f 23/7/1 20/7/1 22/7/1
f 26/7/1 25/7/1 24/7/1
f 27/7/1 25/7/1 26/7/1
f 31/7/1 29/7/1 28/7/1
f 31/5/1 30/5/1 29/5/1
f 32/5/1 30/5/1 31/5/1
f 33/7/1 31/7/1 28/7/1
f 34/7/1 31/7/1 33/7/1
f 39/7/1 38/7/1 37/7/1
f 40/7/1 38/7/1 39/7/1
f 41/3/1 36/3/1 35/3/1
f 42/3/1 36/3/1 41/3/1
f 45/5/1 44/5/1 43/5/1
f 46/5/1 44/5/1 45/5/1
f 49/7/1 48/7/1 47/7/1
f 50/7/1 48/7/1 49/7/1
f 53/6/1 52/6/1 51/6/1
f 54/6/1 52/6/1 53/6/1
f 59/3/1 56/3/1 55/3/1
f 60/3/1 56/3/1 59/3/1
f 61/7/1 58/7/1 57/7/1
f 62/7/1 58/7/1 61/7/1
f 65/3/1 64/3/1 63/3/1
f 66/3/1 64/3/1 65/3/1
f 69/3/1 68/3/1 67/3/1
f 70/3/1 68/3/1 69/3/1
f 73/4/1 72/4/1 71/4/1
f 74/4/1 72/4/1 73/4/1
f 75/4/1 73/4/1 71/4/1
f 76/4/1 73/4/1 75/4/1
f 79/8/1 78/8/1 77/8/1
f 80/8/1 78/8/1 79/8/1
f 81/1/1 80/1/1 79/1/1
f 82/1/1 80/1/1 81/1/1
f 83/2/1 82/2/1 81/2/1
f 84/2/1 82/2/1 83/2/1
f 85/1/1 84/1/1 83/1/1
f 86/1/1 84/1/1 85/1/1
f 87/7/1 86/7/1 85/7/1
f 88/7/1 86/7/1 87/7/1
f 89/1/1 88/1/1 87/1/1
f 90/1/1 88/1/1 89/1/1
f 91/2/1 90/2/1 89/2/1
f 92/2/1 90/2/1 91/2/1
f 93/1/1 92/1/1 91/1/1
f 94/1/1 92/1/1 93/1/1
f 95/8/2 96/8/2 97/8/2
f 97/8/2 96/8/2 98/8/2
f 97/1/2 98/1/2 99/1/2
f 99/1/2 98/1/2 100/1/2
f 99/2/2 100/2/2 101/2/2
f 101/2/2 100/2/2 102/2/2
f 101/1/2 102/1/2 103/1/2
f 103/1/2 102/1/2 104/1/2
f 103/7/2 104/7/2 105/7/2
f 105/7/2 104/7/2 106/7/2
f 105/1/2 106/1/2 107/1/2
f 107/1/2 106/1/2 108/1/2
f 107/2/2 108/2/2 109/2/2
f 109/2/2 108/2/2 110/2/2
f 109/1/2 110/1/2 111/1/2
f 111/1/2 110/1/2 112/1/2
f 113/4/2 114/4/2 115/4/2
f 115/4/2 114/4/2 116/4/2
f 113/4/2 115/4/2 117/4/2
f 117/4/2 115/4/2 118/4/2
f 119/3/2 120/3/2 121/3/2
f 121/3/2 120/3/2 122/3/2
f 123/3/2 124/3/2 125/3/2
f 125/3/2 124/3/2 126/3/2
f 127/3/2 128/3/2 129/3/2
f 129/3/2 128/3/2 130/3/2
f 131/3/2 132/3/2 133/3/2
f 133/3/2 132/3/2 134/3/2
f 135/3/2 136/3/2 137/3/2
f 137/3/2 136/3/2 138/3/2
f 139/3/2 140/3/2 141/3/2
f 141/3/2 140/3/2 142/3/2
f 143/3/2 144/3/2 145/3/2
f 145/3/2 144/3/2 146/3/2
f 147/3/2 148/3/2 149/3/2
f 149/3/2 148/3/2 150/3/2
f 151/3/2 152/3/2 153/3/2
f 153/3/2 152/3/2 154/3/2
f 155/3/2 156/3/2 157/3/2
f 157/3/2 156/3/2 158/3/2
f 159/7/2 160/7/2 161/7/2
f 161/7/2 160/7/2 162/7/2
f 163/6/2 164/6/2 165/6/2
f 165/6/2 164/6/2 166/6/2
f 169/7/2 170/7/2 171/7/2
f 171/7/2 170/7/2 172/7/2
f 167/3/2 168/3/2 173/3/2
f 173/3/2 168/3/2 174/3/2
f 175/5/2 176/5/2 177/5/2
f 177/5/2 176/5/2 178/5/2
f 179/3/2 180/3/2 183/3/2
f 183/3/2 180/3/2 184/3/2
f 181/7/2 182/7/2 185/7/2
f 185/7/2 182/7/2 186/7/2
f 187/7/2 188/7/2 190/7/2
f 188/5/2 189/5/2 190/5/2
f 190/5/2 189/5/2 191/5/2
f 187/7/2 190/7/2 192/7/2
f 192/7/2 190/7/2 193/7/2
f 194/7/2 195/7/2 196/7/2
f 196/7/2 195/7/2 197/7/2
f 198/8/2 199/8/2 200/8/2
f 200/8/2 199/8/2 201/8/2
f 200/1/2 201/1/2 202/1/2
f 202/1/2 201/1/2 203/1/2
f 202/2/2 203/2/2 204/2/2
f 204/2/2 203/2/2 205/2/2
f 204/1/2 205/1/2 206/1/2
f 206/1/2 205/1/2 207/1/2
f 206/7/2 207/7/2 208/7/2
f 208/7/2 207/7/2 209/7/2
f 208/1/2 209/1/2 210/1/2
f 210/1/2 209/1/2 211/1/2
f 210/2/2 211/2/2 212/2/2
f 212/2/2 211/2/2 213/2/2
f 212/1/2 213/1/2 214/1/2
f 214/1/2 213/1/2 215/1/2
f 215/1/2 213/1/2 216/1/2
f 214/7/2 215/7/2 217/7/2
f 215/5/2 216/5/2 217/5/2
f 217/5/2 216/5/2 218/5/2
f 214/7/2 217/7/2 219/7/2
f 219/7/2 217/7/2 220/7/2
f 223/3/3 222/3/3 221/3/3
f 224/3/3 222/3/3 223/3/3
f 225/3/3 223/3/3 221/3/3
f 226/3/3 223/3/3 225/3/3
f 227/3/3 222/3/3 224/3/3
f 228/3/3 222/3/3 227/3/3
f 231/3/3 230/3/3 229/3/3
f 232/3/3 230/3/3 231/3/3
f 233/3/3 230/3/3 232/3/3
f 234/3/3 230/3/3 233/3/3
f 235/3/3 233/3/3 232/3/3
f 236/3/3 233/3/3 235/3/3
f 237/3/3 231/3/3 229/3/3
f 238/3/3 231/3/3 237/3/3
f 239/3/3 230/3/3 234/3/3
f 240/3/3 230/3/3 239/3/3
f 243/3/3 242/3/3 241/3/3
f 244/3/3 242/3/3 243/3/3
f 245/3/3 243/3/3 241/3/3
f 246/3/3 243/3/3 245/3/3
f 249/3/3 248/3/3 247/3/3
f 250/3/3 248/3/3 249/3/3
f 251/3/3 249/3/3 247/3/3
f 252/3/3 249/3/3 251/3/3
f 255/7/3 254/7/3 253/7/3
f 256/7/3 254/7/3 255/7/3
f 259/7/3 255/7/3 253/7/3
f 260/7/3 258/7/3 257/7/3
f 261/7/3 258/7/3 260/7/3
f 262/7/3 254/7/3 256/7/3
f 263/7/3 259/7/3 253/7/3
f 263/7/3 262/7/3 261/7/3
f 263/7/3 261/7/3 260/7/3
f 263/7/3 260/7/3 259/7/3
f 264/7/3 254/7/3 262/7/3
f 264/7/3 262/7/3 263/7/3
f 269/7/3 266/7/3 265/7/3
f 270/7/3 268/7/3 267/7/3
f 271/7/3 263/7/3 253/7/3
f 272/7/3 270/7/3 269/7/3
f 272/7/3 269/7/3 265/7/3
f 273/7/3 268/7/3 270/7/3
f 273/7/3 270/7/3 272/7/3
f 274/7/3 254/7/3 264/7/3
f 275/7/3 271/7/3 253/7/3
f 275/7/3 274/7/3 273/7/3
f 275/7/3 273/7/3 272/7/3
f 275/7/3 272/7/3 271/7/3
f 276/7/3 254/7/3 274/7/3
f 276/7/3 274/7/3 275/7/3
f 278/7/3 254/7/3 276/7/3
f 279/7/3 275/7/3 253/7/3
f 280/7/3 278/7/3 277/7/3
f 281/7/3 279/7/3 253/7/3
f 281/7/3 280/7/3 279/7/3
f 282/7/3 278/7/3 280/7/3
f 282/7/3 280/7/3 281/7/3
f 282/7/3 254/7/3 278/7/3
f 284/7/3 254/7/3 282/7/3
f 285/7/3 281/7/3 253/7/3
f 286/7/3 284/7/3 283/7/3
f 287/7/3 285/7/3 253/7/3
f 287/7/3 286/7/3 285/7/3
f 288/7/3 284/7/3 286/7/3
f 288/7/3 286/7/3 287/7/3
f 288/7/3 254/7/3 284/7/3
f 299/8/3 290/8/3 289/8/3
f 300/1/3 291/1/3 290/1/3
f 300/8/3 290/8/3 299/8/3
f 301/2/3 292/2/3 291/2/3
f 301/1/3 291/1/3 300/1/3
f 302/1/3 293/1/3 292/1/3
f 302/2/3 292/2/3 301/2/3
f 303/7/3 294/7/3 293/7/3
f 303/1/3 293/1/3 302/1/3
f 304/1/3 295/1/3 294/1/3
f 304/7/3 294/7/3 303/7/3
f 305/2/3 296/2/3 295/2/3
f 305/1/3 295/1/3 304/1/3
f 306/1/3 297/1/3 296/1/3
f 306/2/3 296/2/3 305/2/3
f 307/7/3 298/7/3 297/7/3
f 307/1/3 297/1/3 306/1/3
f 308/7/3 298/7/3 307/7/3
f 309/4/3 306/4/3 305/4/3
f 309/4/3 300/4/3 299/4/3
f 309/4/3 308/4/3 307/4/3
f 309/4/3 307/4/3 306/4/3
f 309/4/3 305/4/3 304/4/3
f 309/4/3 304/4/3 303/4/3
f 309/4/3 303/4/3 302/4/3
f 309/4/3 302/4/3 301/4/3
f 309/4/3 301/4/3 300/4/3
f 310/7/3 298/7/3 308/7/3
f 310/4/3 308/4/3 309/4/3
f 311/7/3 298/7/3 310/7/3
f 313/4/3 311/4/3 310/4/3
f 314/4/3 311/4/3 313/4/3
f 315/4/3 313/4/3 312/4/3
f 316/4/3 313/4/3 315/4/3
f 317/4/3 313/4/3 316/4/3
f 318/4/3 313/4/3 317/4/3
f 319/4/3 313/4/3 318/4/3
f 320/4/3 313/4/3 319/4/3
f 321/4/3 313/4/3 320/4/3
f 322/4/3 313/4/3 321/4/3
f 323/4/3 313/4/3 322/4/3
f 324/7/3 314/7/3 313/7/3
f 324/4/3 313/4/3 323/4/3
f 325/8/3 316/8/3 315/8/3
f 326/1/3 317/1/3 316/1/3
f 326/8/3 316/8/3 325/8/3
f 327/2/3 318/2/3 317/2/3
f 327/1/3 317/1/3 326/1/3
f 328/1/3 319/1/3 318/1/3
f 328/2/3 318/2/3 327/2/3
f 329/7/3 320/7/3 319/7/3
f 329/1/3 319/1/3 328/1/3
f 330/1/3 321/1/3 320/1/3
f 330/7/3 320/7/3 329/7/3
f 331/2/3 322/2/3 321/2/3
f 331/1/3 321/1/3 330/1/3
f 332/1/3 323/1/3 322/1/3
f 332/2/3 322/2/3 331/2/3
f 333/7/3 324/7/3 323/7/3
f 333/1/3 323/1/3 332/1/3
f 334/7/3 314/7/3 324/7/3
f 334/7/3 324/7/3 333/7/3
f 337/5/3 336/5/3 335/5/3
f 338/5/3 336/5/3 337/5/3
f 348/8/3 340/8/3 339/8/3
f 349/1/3 341/1/3 340/1/3
f 349/8/3 340/8/3 348/8/3
f 350/2/3 342/2/3 341/2/3
f 350/1/3 341/1/3 349/1/3
f 351/1/3 343/1/3 342/1/3
f 351/2/3 342/2/3 350/2/3
f 352/7/3 344/7/3 343/7/3
f 352/1/3 343/1/3 351/1/3
f 353/1/3 345/1/3 344/1/3
f 353/7/3 344/7/3 352/7/3
f 354/2/3 346/2/3 345/2/3
f 354/1/3 345/1/3 353/1/3
f 355/1/3 347/1/3 346/1/3
f 355/2/3 346/2/3 354/2/3
f 356/1/3 347/1/3 355/1/3
f 357/7/4 358/7/4 359/7/4
f 359/7/4 358/7/4 360/7/4
f 360/7/4 358/7/4 361/7/4
f 361/7/4 358/7/4 362/7/4
f 362/7/4 358/7/4 363/7/4
f 363/7/4 358/7/4 364/7/4
f 364/7/4 358/7/4 365/7/4
f 365/7/4 358/7/4 366/7/4
f 366/7/4 358/7/4 367/7/4
f 367/7/4 358/7/4 368/7/4
f 368/7/4 358/7/4 370/7/4
f 369/7/4 370/7/4 372/7/4
f 371/7/4 372/7/4 374/7/4
f 373/7/4 374/7/4 376/7/4
f 375/7/4 376/7/4 378/7/4
f 377/7/4 378/7/4 379/7/4
f 370/7/4 358/7/4 380/7/4
f 379/7/4 378/7/4 380/7/4
f 372/7/4 370/7/4 380/7/4
f 378/7/4 376/7/4 380/7/4
f 374/7/4 372/7/4 380/7/4
f 376/7/4 374/7/4 380/7/4
f 381/7/4 382/7/4 383/7/4
f 383/7/4 382/7/4 384/7/4
f 385/7/4 386/7/4 387/7/4
f 387/7/4 386/7/4 388/7/4
f 389/4/4 390/4/4 398/4/4
f 396/4/4 397/4/4 398/4/4
f 395/4/4 396/4/4 398/4/4
f 394/4/4 395/4/4 398/4/4
f 393/4/4 394/4/4 398/4/4
f 392/4/4 393/4/4 398/4/4
f 391/4/4 392/4/4 398/4/4
f 390/4/4 391/4/4 398/4/4
f 398/4/4 397/4/4 399/4/4
f 400/4/4 401/4/4 402/4/4
f 402/4/4 401/4/4 403/4/4
f 403/4/4 401/4/4 404/4/4
f 404/4/4 401/4/4 405/4/4
f 405/4/4 401/4/4 406/4/4
f 406/4/4 401/4/4 407/4/4
f 407/4/4 401/4/4 408/4/4
f 408/4/4 401/4/4 409/4/4
f 409/4/4 401/4/4 410/4/4
f 411/7/4 412/7/4 413/7/4
f 413/7/4 412/7/4 414/7/4
f 415/6/4 416/6/4 417/6/4
f 417/6/4 416/6/4 418/6/4
f 419/7/4 420/7/4 421/7/4
f 421/7/4 420/7/4 422/7/4
f 423/5/4 424/5/4 425/5/4
f 425/5/4 424/5/4 426/5/4
f 427/7/4 428/7/4 429/7/4
f 429/7/4 428/7/4 430/7/4
f 431/5/4 432/5/4 433/5/4
f 433/5/4 432/5/4 434/5/4
f 435/7/4 436/7/4 437/7/4
f 437/7/4 436/7/4 438/7/4
f 439/8/4 440/8/4 449/8/4
f 440/1/4 441/1/4 450/1/4
f 449/8/4 440/8/4 450/8/4
f 441/2/4 442/2/4 451/2/4
f 450/1/4 441/1/4 451/1/4
f 442/1/4 443/1/4 452/1/4
f 451/2/4 442/2/4 452/2/4
f 443/7/4 444/7/4 453/7/4
f 452/1/4 443/1/4 453/1/4
f 444/1/4 445/1/4 454/1/4
f 453/7/4 444/7/4 454/7/4
f 445/2/4 446/2/4 455/2/4
f 454/1/4 445/1/4 455/1/4
f 446/1/4 447/1/4 456/1/4
f 455/2/4 446/2/4 456/2/4
f 447/5/4 448/5/4 457/5/4
f 456/1/4 447/1/4 457/1/4
f 457/5/4 448/5/4 458/5/4
f 465/8/5 460/8/5 459/8/5
f 465/4/5 461/4/5 460/4/5
f 466/4/5 461/4/5 465/4/5
f 467/4/5 463/4/5 462/4/5
f 468/8/5 464/8/5 463/8/5
f 468/4/5 463/4/5 467/4/5
f 469/8/5 465/8/5 459/8/5
f 470/8/5 464/8/5 468/8/5
f 471/8/5 469/8/5 459/8/5
f 471/8/5 470/8/5 469/8/5
f 472/8/5 464/8/5 470/8/5
f 472/8/5 470/8/5 471/8/5
f 476/5/5 474/5/5 473/5/5
f 477/5/5 474/5/5 476/5/5
f 479/5/5 476/5/5 475/5/5
f 479/5/5 478/5/5 477/5/5
f 479/5/5 477/5/5 476/5/5
f 480/5/5 478/5/5 479/5/5
f 483/4/5 482/4/5 481/4/5
f 484/4/5 482/4/5 483/4/5
f 487/7/5 486/7/5 485/7/5
f 488/7/5 486/7/5 487/7/5
f 497/3/5 490/3/5 489/3/5
f 498/3/5 490/3/5 497/3/5
f 499/3/5 492/3/5 491/3/5
f 500/3/5 492/3/5 499/3/5
f 501/3/5 494/3/5 493/3/5
f 502/3/5 494/3/5 501/3/5
f 503/3/5 496/3/5 495/3/5
f 504/3/5 496/3/5 503/3/5
f 507/3/5 506/3/5 505/3/5
f 508/3/5 506/3/5 507/3/5
f 513/3/5 510/3/5 509/3/5
f 514/3/5 510/3/5 513/3/5
f 515/3/5 512/3/5 511/3/5
f 516/3/5 512/3/5 515/3/5
f 517/5/6 518/5/6 521/5/6
f 519/5/6 520/5/6 522/5/6
f 517/5/6 521/5/6 523/5/6
f 521/5/6 522/5/6 523/5/6
f 522/5/6 520/5/6 524/5/6
f 523/5/6 522/5/6 524/5/6
f 525/7/6 526/7/6 529/7/6
f 529/7/6 526/7/6 530/7/6
f 527/7/6 528/7/6 531/7/6
f 531/7/6 528/7/6 532/7/6
f 530/7/6 526/7/6 533/7/6
f 527/7/6 531/7/6 534/7/6
f 530/7/6 533/7/6 535/7/6
f 533/7/6 534/7/6 535/7/6
f 534/7/6 531/7/6 536/7/6
f 535/7/6 534/7/6 536/7/6
f 537/5/6 538/5/6 541/5/6
f 539/5/6 540/5/6 542/5/6
f 537/5/6 541/5/6 543/5/6
f 541/5/6 542/5/6 543/5/6
f 542/5/6 540/5/6 544/5/6
f 543/5/6 542/5/6 544/5/6
f 545/3/6 546/3/6 553/3/6
f 553/3/6 546/3/6 554/3/6
f 547/3/6 548/3/6 555/3/6
f 555/3/6 548/3/6 556/3/6
f 549/3/6 550/3/6 557/3/6
f 557/3/6 550/3/6 558/3/6
f 551/3/6 552/3/6 559/3/6
f 559/3/6 552/3/6 560/3/6
f 561/7/6 562/7/6 565/7/6
f 563/7/6 564/7/6 566/7/6
f 561/7/6 565/7/6 567/7/6
f 565/7/6 566/7/6 567/7/6
f 566/7/6 564/7/6 568/7/6
f 567/7/6 566/7/6 568/7/6
f 569/5/6 570/5/6 573/5/6
f 571/5/6 572/5/6 574/5/6
f 569/5/6 573/5/6 575/5/6
f 573/5/6 574/5/6 575/5/6
f 574/5/6 572/5/6 576/5/6
f 575/5/6 574/5/6 576/5/6
f 577/3/6 578/3/6 579/3/6
f 579/3/6 578/3/6 580/3/6
f 581/7/6 582/7/6 585/7/6
f 583/7/6 584/7/6 586/7/6
f 581/7/6 585/7/6 587/7/6
f 585/7/6 586/7/6 587/7/6
f 586/7/6 584/7/6 588/7/6
f 587/7/6 586/7/6 588/7/6
f 589/6/6 590/6/6 593/6/6
f 591/6/6 592/6/6 594/6/6
f 589/6/6 593/6/6 595/6/6
f 593/6/6 594/6/6 595/6/6
f 594/6/6 592/6/6 596/6/6
f 595/6/6 594/6/6 596/6/6
f 597/3/6 598/3/6 605/3/6
f 605/3/6 598/3/6 606/3/6
f 599/3/6 600/3/6 607/3/6
f 607/3/6 600/3/6 608/3/6
f 601/3/6 602/3/6 609/3/6
f 609/3/6 602/3/6 610/3/6
f 603/3/6 604/3/6 611/3/6
f 611/3/6 604/3/6 612/3/6
f 613/7/6 614/7/6 615/7/6
f 615/7/6 614/7/6 616/7/6
f 617/7/6 618/7/6 619/7/6
f 619/7/6 618/7/6 620/7/6
